<?xml version="1.0" encoding="utf-8"?>
<!-- Generator: Adobe Illustrator 19.0.0, SVG Export Plug-In . SVG Version: 6.00 Build 0)  -->
<svg version="1.1" id="Layer_1" xmlns="http://www.w3.org/2000/svg" xmlns:xlink="http://www.w3.org/1999/xlink" x="0px" y="0px"
	 viewBox="0 0 838.6 203.6" style="enable-background:new 0 0 838.6 203.6;" xml:space="preserve">
<style type="text/css">
	.st0{display:none;fill:#6486A1;stroke:#000000;stroke-miterlimit:10;}
	.st1{fill:#FFFFFF;}
</style>
<rect id="XMLID_1_" x="0" y="-6.8" class="st0" width="1011.4" height="595.2"/>
<g id="XMLID_9_">
	<path id="XMLID_10_" class="st1" d="M2.6,189V1.5h8V104c4.5-9.2,11.5-16.5,21.1-22c9.6-5.5,19.5-8.2,29.9-8.2
		c16.5,0,30.5,5.8,42.1,17.4c11.6,11.6,17.4,25.5,17.4,41.6c0,16.2-5.8,30-17.4,41.6c-11.6,11.6-25.6,17.4-42.1,17.4
		c-10,0-19.8-2.7-29.2-8.1s-16.8-12.7-21.8-21.9V189H2.6z M10.1,133c0,14,5.1,26.1,15.4,36.4s22.4,15.4,36.5,15.4
		c14.1,0,26.1-5.1,36.1-15.4s15-22.4,15-36.5c0-14.1-5-26.3-15.1-36.6C87.9,85.9,75.8,80.7,61.8,80.7s-26.1,5.2-36.4,15.6
		C15.2,106.8,10.1,119,10.1,133z"/>
	<path id="XMLID_13_" class="st1" d="M187.6,184.2v7c-11.8,0-21.9-4-30.2-11.9c-8.3-7.9-12.5-18-12.5-30.4V1.5h8V149
		c0,10.2,3.4,18.6,10.1,25.2C169.7,180.9,177.9,184.2,187.6,184.2z"/>
	<path id="XMLID_15_" class="st1" d="M208.6,173.8c-11.5-11.9-17.2-25.8-17.2-41.6c0-15.8,5.8-29.5,17.5-41.1
		c11.7-11.6,25.7-17.4,42.1-17.4c16.4,0,30.4,5.8,42,17.4c11.6,11.6,17.4,25.3,17.4,41.2c0,15.9-5.7,29.8-17,41.6
		c-11.3,11.8-25.1,17.8-41.2,17.8h-2.2C233.8,191.7,220.1,185.8,208.6,173.8z M302.3,132.8c0-14.1-5-26.3-15.1-36.6
		c-10.1-10.3-22.1-15.5-36.1-15.5s-26.1,5.2-36.4,15.6c-10.2,10.4-15.4,22.6-15.4,36.6s5.1,26.1,15.4,36.4s22.4,15.4,36.5,15.4
		c14.1,0,26.1-5.1,36.1-15.4S302.3,146.9,302.3,132.8z"/>
	<path id="XMLID_18_" class="st1" d="M388.6,192.2h-2.2c-16,0-29.8-5.9-41.2-17.8c-11.5-11.8-17.2-25.7-17.2-41.6
		c0-15.9,5.8-29.7,17.5-41.2c11.7-11.6,26-17.4,43-17.4s31.5,6.4,43.5,19.2v12.8c-5.2-7.7-11.7-13.8-19.6-18.2
		c-7.9-4.5-16.2-6.8-24.9-6.8c-13.8,0-25.9,5.1-36.1,15.4s-15.4,22.5-15.4,36.6c0,14.2,5.1,26.4,15.4,36.6s22.3,15.4,36.1,15.4
		c8.7,0,17-2.2,24.9-6.8c7.9-4.5,14.5-10.7,19.6-18.5v13C420.2,185.8,405.8,192.2,388.6,192.2z"/>
	<path id="XMLID_20_" class="st1" d="M495.8,184.2v7c-11.8,0-21.9-4-30.2-11.9c-8.3-7.9-12.5-18-12.5-30.4V1.5h8V149
		c0,10.2,3.4,18.6,10.1,25.2C478,180.9,486.2,184.2,495.8,184.2z"/>
	<path id="XMLID_22_" class="st1" d="M516.8,173.8c-11.5-11.9-17.2-25.8-17.2-41.6c0-15.8,5.8-29.5,17.5-41.1
		c11.7-11.6,25.7-17.4,42.1-17.4c16.4,0,30.4,5.8,42,17.4c11.6,11.6,17.4,25.3,17.4,41.2c0,15.9-5.7,29.8-17,41.6
		c-11.3,11.8-25.1,17.8-41.2,17.8h-2.2C542.1,191.7,528.3,185.8,516.8,173.8z M610.6,132.8c0-14.1-5-26.3-15.1-36.6
		c-10.1-10.3-22.1-15.5-36.1-15.5s-26.1,5.2-36.4,15.6c-10.2,10.4-15.4,22.6-15.4,36.6s5.1,26.1,15.4,36.4s22.4,15.4,36.5,15.4
		c14.1,0,26.1-5.1,36.1-15.4S610.6,146.9,610.6,132.8z"/>
	<path id="XMLID_25_" class="st1" d="M696.8,192.2h-2.2c-16,0-29.8-5.9-41.2-17.8c-11.5-11.8-17.2-25.7-17.2-41.6
		c0-15.9,5.8-29.7,17.5-41.2c11.7-11.6,26-17.4,43-17.4s31.5,6.4,43.5,19.2v12.8c-5.2-7.7-11.7-13.8-19.6-18.2
		c-7.9-4.5-16.2-6.8-24.9-6.8c-13.8,0-25.9,5.1-36.1,15.4s-15.4,22.5-15.4,36.6c0,14.2,5.1,26.4,15.4,36.6s22.3,15.4,36.1,15.4
		c8.7,0,17-2.2,24.9-6.8c7.9-4.5,14.5-10.7,19.6-18.5v13C728.4,185.8,714,192.2,696.8,192.2z"/>
	<path id="XMLID_27_" class="st1" d="M761.3,2h8v113.5l44.5-39h10.2l-51.5,45l64.5,67.5h-10.8l-57-59.2V189h-8V2z"/>
</g>
</svg>
